HIERARCHY
ROOT hip
{
	OFFSET 0.000000 0.000000 0.000000 
	CHANNELS 6 Xposition Yposition Zposition Xrotation Zrotation Yrotation
	JOINT abdomen
	{
		OFFSET 0.000000 3.402643 0.000000 
		CHANNELS 3 Xrotation Zrotation Yrotation
		JOINT chest
		{
			OFFSET 0.000000 8.438565 -0.680529 
			CHANNELS 3 Xrotation Zrotation Yrotation
			JOINT neck
			{
				OFFSET 0.000000 10.207942 -0.272212 
				CHANNELS 3 Xrotation Zrotation Yrotation
				JOINT head
				{
					OFFSET 0.000000 3.130431 0.000000 
					CHANNELS 3 Xrotation Zrotation Yrotation
					End Site
					{
						OFFSET 0.000000 3.130435 0.000000 
					}
				}
			}
			JOINT lCollar
			{
				OFFSET 3.470700 6.669187 -0.816635 
				CHANNELS 3 Yrotation Zrotation Xrotation
				JOINT lShldr
				{
					OFFSET 3.198488 0.000000 0.000000 
					CHANNELS 3 Zrotation Yrotation Xrotation
					JOINT lForeArm
					{
						OFFSET 10.139888 0.000000 0.000000 
						CHANNELS 3 Yrotation Zrotation Xrotation
						JOINT lHand
						{
							OFFSET 8.370511 0.000000 0.000000 
							CHANNELS 3 Zrotation Yrotation Xrotation
							End Site
							{
								OFFSET 4.083176 0.000000 0.000000 
							}
						}
					}
				}
			}
			JOINT rCollar
			{
				OFFSET -3.470700 6.669187 -0.816635 
				CHANNELS 3 Yrotation Zrotation Xrotation
				JOINT rShldr
				{
					OFFSET -3.198488 0.000000 0.000000 
					CHANNELS 3 Zrotation Yrotation Xrotation
					JOINT rForeArm
					{
						OFFSET -10.139888 0.000000 0.000000 
						CHANNELS 3 Yrotation Zrotation Xrotation
						JOINT rHand
						{
							OFFSET -8.370511 0.000000 0.000000 
							CHANNELS 3 Zrotation Yrotation Xrotation
							End Site
							{
								OFFSET -4.083176 0.000000 0.000000 
							}
						}
					}
				}
			}
		}
	}
	JOINT lThigh
	{
		OFFSET 5.308129 -1.633274 1.361059 
		CHANNELS 3 Xrotation Zrotation Yrotation
		JOINT lShin
		{
			OFFSET -2.041588 -20.007561 0.000000 
			CHANNELS 3 Xrotation Zrotation Yrotation
			JOINT lFoot
			{
				OFFSET 0.000000 -19.190928 -1.224953 
				CHANNELS 3 Xrotation Yrotation Zrotation
				End Site
				{
					OFFSET 0.000000 -2.449906 4.627600 
				}
			}
		}
	}
	JOINT rThigh
	{
		OFFSET -5.308129 -1.633274 1.361059 
		CHANNELS 3 Xrotation Zrotation Yrotation
		JOINT rShin
		{
			OFFSET 2.041588 -20.007561 0.000000 
			CHANNELS 3 Xrotation Zrotation Yrotation
			JOINT rFoot
			{
				OFFSET 0.000000 -19.190928 -1.224953 
				CHANNELS 3 Xrotation Yrotation Zrotation
				End Site
				{
					OFFSET 0.000000 -2.449906 4.627600 
				}
			}
		}
	}
}
MOTION
Frames: 11
Frame Time: 0.011111
42.388432 82.791382 32.309856 -10.491208 4.118718 -75.400177 32.000008 7.131457 -2.191681 -17.118141 5.372237 -1.679882 -11.356791 -5.497532 -3.267107 15.432472 16.879984 -6.724429 -3.413843 -5.192144 0.282785 14.283242 3.698918 69.745720 -39.540913 4.569784 4.227541 8.524705 12.647240 -36.516979 7.531429 2.224408 -0.396538 -2.949857 13.189246 -37.373856 77.660812 -7.454365 21.095943 -8.534408 -12.637552 106.673691 -10.946980 -2.919942 24.129293 65.063538 -2.163189 -8.545432 16.975231 9.960875 -4.656199 -35.928177 -18.346548 8.221317 77.977654 0.459235 9.323952 10.217208 -11.958390 4.568327 
42.679695 83.811287 32.477192 -10.395944 4.435607 -78.716125 33.922749 7.485258 -1.169158 -17.000164 5.456928 -1.518634 -11.096139 -5.819938 -3.745662 15.413686 17.058170 -7.747052 -3.413843 -5.192144 0.282785 8.373187 8.388486 66.881233 -38.271992 4.098987 3.790559 8.524705 12.647240 -39.983780 7.531429 2.224408 -0.396538 -0.145697 14.852593 -35.669346 75.926941 -8.010698 20.140530 -8.534408 -12.637552 108.841660 -14.676060 -2.070500 24.601460 69.246872 -1.647208 -8.841952 16.040283 9.849727 -4.576060 -39.309826 -17.224771 9.104633 82.429817 -0.146189 9.520651 9.073990 -10.755980 4.210418 
42.971279 84.793106 32.645458 -10.011892 4.961826 -81.838501 35.681252 8.056911 -0.030872 -16.823603 5.396982 -1.377904 -11.000034 -6.105318 -4.287017 15.412683 17.252184 -8.897573 -3.413843 -5.192144 0.282785 1.736446 12.434843 63.318798 -37.218105 3.690259 3.443344 8.524705 12.647240 -42.415417 7.531429 2.224408 -0.396538 2.539089 16.576195 -33.373222 74.010033 -8.498231 19.124676 -8.534408 -12.637552 110.140488 -19.036036 -0.726222 24.570402 73.512222 -1.092317 -9.115472 15.335542 9.341308 -4.397520 -42.692528 -15.809887 9.573463 86.705765 -0.741810 9.642895 7.732369 -9.910415 3.943668 
43.263172 85.721855 32.810608 -9.613923 5.614439 -84.763733 37.428913 8.606222 1.113804 -16.617937 5.200318 -1.241855 -10.902857 -6.381101 -4.840795 15.228450 17.555922 -10.084570 -3.413843 -5.192144 0.282785 -5.680621 15.672769 58.089706 -36.277802 3.312651 3.133292 8.524705 12.647240 -44.847061 7.531429 2.224408 -0.396538 5.297578 18.300238 -30.605274 72.056213 -8.873182 18.117481 -8.534408 -12.637552 110.501816 -23.766285 0.799145 24.030491 77.715393 -0.535678 -9.336648 14.895299 8.409463 -4.111581 -46.078411 -14.374185 9.663033 90.863274 -1.346815 9.731351 6.303774 -9.406016 3.734912 
43.555687 86.588478 32.969818 -9.335408 6.308359 -87.475723 39.264389 9.024539 2.217729 -16.412600 4.896026 -1.122883 -10.766607 -6.687972 -5.383608 14.831578 18.161583 -11.216879 -3.413843 -5.192144 0.282785 -13.688704 17.909924 51.439823 -35.440155 2.972037 2.865867 8.524705 12.647240 -47.015026 7.531429 2.224408 -0.396538 8.211032 19.978958 -27.612289 70.195961 -9.139226 17.185192 -8.534408 -12.637552 109.837746 -28.648548 2.312700 23.030567 81.740334 0.030218 -9.498112 14.768179 7.093431 -3.769843 -49.429855 -13.104814 9.384665 94.934288 -1.952054 9.752593 4.842186 -9.280903 3.592756 
43.845081 87.423889 33.129036 -9.222648 6.976446 -89.952194 41.209526 9.263978 3.276159 -16.266346 4.472366 -1.007781 -10.552566 -7.015669 -5.892695 14.137924 19.082644 -12.292917 -3.413843 -5.192144 0.282785 -22.030313 18.973425 43.000767 -34.584946 2.614655 2.591993 8.524705 12.647240 -49.886120 7.531429 2.224408 -0.396538 11.305788 21.597399 -24.847004 68.583504 -9.301893 16.403364 -8.534408 -12.637552 108.216660 -33.498459 3.667615 21.671797 85.471710 0.556985 -9.623925 14.837326 5.443759 -3.367644 -52.611458 -12.128608 8.827598 98.841812 -2.508813 9.753275 3.385624 -9.580499 3.471569 
44.137600 88.185616 33.279507 -9.235559 7.620280 -92.156311 43.254978 9.417344 4.308597 -16.169106 3.998646 -0.901191 -10.309066 -7.329484 -6.369913 13.185351 20.200359 -13.329144 -3.413843 -5.192144 0.282785 -30.104916 18.882036 35.747177 -33.820927 2.283953 2.353465 8.524705 12.647240 -51.194714 7.531429 2.224408 -0.396538 14.562991 23.159801 -22.481554 67.197220 -9.396779 15.732035 -8.534408 -12.637552 105.824074 -38.394413 4.851227 19.954138 88.950211 1.044891 -9.704276 15.097464 3.592747 -2.885800 -55.702106 -11.435378 7.925279 102.682915 -3.056090 9.733932 1.932255 -10.289480 3.359319 
44.429493 88.893341 33.429043 -9.422014 8.248632 -94.110809 45.336384 9.450948 5.282747 -16.140255 3.504126 -0.801590 -10.054602 -7.585053 -6.830901 11.919963 21.356258 -14.386402 -3.413843 -5.192144 0.282785 -37.387817 17.800306 29.314507 -33.167690 1.997595 2.148979 8.524705 12.647240 -52.141979 7.531429 2.224408 -0.396538 17.875507 24.646692 -20.568146 66.016838 -9.442028 15.178729 -8.534408 -12.637552 103.050644 -43.276989 5.759743 17.977352 92.127846 1.482788 -9.753821 15.462599 1.619187 -2.396685 -58.726822 -11.112952 6.812140 106.439934 -3.602203 9.657536 0.453809 -11.309997 3.202975 
44.719200 89.539566 33.582638 -9.804229 8.820054 -95.853928 47.418156 9.356838 6.159452 -16.160084 3.028980 -0.713650 -9.807809 -7.747984 -7.288422 10.341781 22.389698 -15.461765 -3.413843 -5.192144 0.282785 -43.678677 15.986359 23.981232 -32.614418 1.751160 1.978979 8.524705 12.647240 -52.972057 7.531429 2.224408 -0.396538 21.148394 26.035181 -18.986923 65.028862 -9.464190 14.713826 -8.534408 -12.637552 100.326035 -48.132664 6.356499 15.889703 95.081345 1.912609 -9.781445 15.788047 -0.355813 -1.887179 -61.689396 -11.201156 5.593598 110.103340 -4.129510 9.552446 -1.082387 -12.466292 2.990111 
45.004227 90.121475 33.742790 -10.437553 9.337292 -97.456856 49.494316 9.112971 6.941439 -16.218784 2.593032 -0.634597 -9.638399 -7.886977 -7.732483 8.552896 23.240534 -16.605000 -3.413843 -5.192144 0.282785 -48.965744 13.589305 19.776310 -32.071869 1.509016 1.820002 8.524705 12.647240 -54.007214 7.531429 2.224408 -0.396538 24.279358 27.435369 -17.778740 64.153931 -9.460507 14.297203 -8.534408 -12.637552 97.816269 -52.952957 6.628710 13.758307 97.762772 2.311678 -9.801030 16.124794 -2.071782 -1.458135 -64.639671 -11.717962 4.393614 113.713501 -4.626761 9.409659 -2.729249 -13.576116 2.705499 
45.280819 90.647507 33.908871 -11.351091 9.766710 -98.955803 51.559650 8.715941 7.567276 -16.316391 2.244622 -0.551142 -9.576290 -8.023990 -8.132735 6.594404 23.928572 -17.730043 -3.413843 -5.192144 0.282785 -53.308693 10.836913 16.680897 -31.628502 1.301398 1.686408 8.524705 12.647240 -55.130260 7.531429 2.224408 -0.396538 27.136566 28.932713 -16.845350 63.281006 -9.450178 13.899870 -8.534408 -12.637552 95.677589 -57.710968 6.610296 11.628296 100.232117 2.674199 -9.782524 16.403715 -3.503434 -1.088248 -67.613350 -12.714261 3.286880 117.289429 -5.124770 9.237278 -4.550439 -14.395516 2.319425 
